HIERARCHY
ROOT hip
{
	OFFSET 0.000000 0.000000 0.000000 
	CHANNELS 6 Xposition Yposition Zposition Xrotation Zrotation Yrotation
	JOINT abdomen
	{
		OFFSET 0.000000 3.402643 0.000000 
		CHANNELS 3 Xrotation Zrotation Yrotation
		JOINT chest
		{
			OFFSET 0.000000 8.438565 -0.680529 
			CHANNELS 3 Xrotation Zrotation Yrotation
			JOINT neck
			{
				OFFSET 0.000000 10.207942 -0.272212 
				CHANNELS 3 Xrotation Zrotation Yrotation
				JOINT head
				{
					OFFSET 0.000000 3.130431 0.000000 
					CHANNELS 3 Xrotation Zrotation Yrotation
					End Site
					{
						OFFSET 0.000000 3.130435 0.000000 
					}
				}
			}
			JOINT lCollar
			{
				OFFSET 3.470700 6.669187 -0.816635 
				CHANNELS 3 Yrotation Zrotation Xrotation
				JOINT lShldr
				{
					OFFSET 3.198488 0.000000 0.000000 
					CHANNELS 3 Zrotation Yrotation Xrotation
					JOINT lForeArm
					{
						OFFSET 10.139888 0.000000 0.000000 
						CHANNELS 3 Yrotation Zrotation Xrotation
						JOINT lHand
						{
							OFFSET 8.370511 0.000000 0.000000 
							CHANNELS 3 Zrotation Yrotation Xrotation
							End Site
							{
								OFFSET 4.083176 0.000000 0.000000 
							}
						}
					}
				}
			}
			JOINT rCollar
			{
				OFFSET -3.470700 6.669187 -0.816635 
				CHANNELS 3 Yrotation Zrotation Xrotation
				JOINT rShldr
				{
					OFFSET -3.198488 0.000000 0.000000 
					CHANNELS 3 Zrotation Yrotation Xrotation
					JOINT rForeArm
					{
						OFFSET -10.139888 0.000000 0.000000 
						CHANNELS 3 Yrotation Zrotation Xrotation
						JOINT rHand
						{
							OFFSET -8.370511 0.000000 0.000000 
							CHANNELS 3 Zrotation Yrotation Xrotation
							End Site
							{
								OFFSET -4.083176 0.000000 0.000000 
							}
						}
					}
				}
			}
		}
	}
	JOINT lThigh
	{
		OFFSET 5.308129 -1.633274 1.361059 
		CHANNELS 3 Xrotation Zrotation Yrotation
		JOINT lShin
		{
			OFFSET -2.041588 -20.007561 0.000000 
			CHANNELS 3 Xrotation Zrotation Yrotation
			JOINT lFoot
			{
				OFFSET 0.000000 -19.190928 -1.224953 
				CHANNELS 3 Xrotation Yrotation Zrotation
				End Site
				{
					OFFSET 0.000000 -2.449906 4.627600 
				}
			}
		}
	}
	JOINT rThigh
	{
		OFFSET -5.308129 -1.633274 1.361059 
		CHANNELS 3 Xrotation Zrotation Yrotation
		JOINT rShin
		{
			OFFSET 2.041588 -20.007561 0.000000 
			CHANNELS 3 Xrotation Zrotation Yrotation
			JOINT rFoot
			{
				OFFSET 0.000000 -19.190928 -1.224953 
				CHANNELS 3 Xrotation Yrotation Zrotation
				End Site
				{
					OFFSET 0.000000 -2.449906 4.627600 
				}
			}
		}
	}
}
MOTION
Frames: 13
Frame Time: 0.033333
2.619491 58.410797 2.333446 53.681641 -0.224609 5.517578 10.370376 -8.712459 -6.345483 163.359375 1.650391 -8.857421 -29.161154 6.276254 0.419799 -7.656250 9.121094 9.638673 2.000000 -2.000000 0.000000 -56.699219 -31.464844 -39.995331 -43.273563 -50.556473 52.744568 -61.059441 -41.923935 -0.043396 -2.000000 2.000000 0.000000 55.419918 24.150391 55.000000 70.904228 -46.932640 33.381134 31.207804 61.180157 -55.952080 63.627625 -12.078172 3.737417 50.719986 12.539069 0.617556 29.151289 5.794980 -6.699915 66.733795 -16.843807 -3.693735 51.786232 13.643660 6.855823 3.147865 -14.588828 15.211141 
1.030471 59.545513 -0.045816 64.794922 -11.074220 -1.251876 10.370376 -8.712459 -6.345483 135.371094 -11.982423 -5.734450 -27.862164 6.266599 0.421259 8.925781 6.611328 4.179688 2.000000 -2.000000 0.000000 -55.009766 -28.193359 -40.292969 -45.355377 -51.502743 49.338585 -62.711967 -40.693596 2.028521 -2.000000 2.000000 0.000000 53.837891 19.921875 61.835938 77.239975 -53.633167 36.379986 36.175694 60.351135 -53.413147 28.297394 -4.002045 13.847933 50.433090 8.000069 -0.387981 3.655807 12.201657 24.580301 27.121517 -9.392024 -2.034158 48.535786 2.754657 4.050645 -3.247186 -5.057325 38.105495 
0.807046 59.818825 -3.334473 74.511719 -6.103516 2.938415 10.370376 -8.712459 -6.345483 107.158203 -6.865234 1.923828 -23.432716 14.446806 1.069828 18.300781 0.429688 -6.103443 2.000000 -2.000000 0.000000 -63.349609 -30.498049 -34.350662 -44.385872 -46.322853 51.709442 -54.421135 -42.769352 -7.110795 -2.000000 2.000000 0.000000 58.828125 11.962891 66.154373 71.192200 -58.099945 28.758398 32.765362 59.275238 -55.791496 -6.893123 -9.139169 14.329262 45.652260 14.298533 1.230397 11.103590 -13.185572 5.969140 -4.149460 -17.649580 -4.274868 39.562592 9.051469 4.593204 -6.371137 -0.857138 28.276485 
-0.431738 57.606781 -5.194648 55.029297 -9.726563 3.162412 10.370376 -8.712459 -6.345483 110.664063 -12.763672 -0.168174 -24.768711 14.136005 1.040188 24.140627 2.138672 -4.345338 2.000000 -2.000000 0.000000 -62.578125 -22.197266 -33.812286 -58.335171 -41.761059 38.737408 -38.396744 -38.923534 -26.109217 -2.000000 2.000000 0.000000 63.349609 9.580078 77.216797 67.300316 -66.519066 24.414110 34.215172 49.420528 -63.180958 -0.409634 0.964247 17.403725 26.018362 6.877636 0.672605 15.605014 -30.435553 15.907869 0.712047 -9.299065 -1.677544 18.651573 6.414783 2.035474 -3.114007 6.668246 45.341545 
-2.040719 54.077972 -8.579470 45.761723 -13.769532 2.009395 10.370376 -8.712459 -6.345483 99.423828 -16.074221 1.591796 -20.265076 11.457699 0.842342 16.425781 5.214844 1.954013 2.000000 -2.000000 0.000000 -65.058594 -8.447267 -30.372530 -72.452309 -31.386557 40.952099 -23.830753 -37.095852 -38.610935 -2.000000 2.000000 0.000000 67.011719 13.046876 89.931641 50.407978 -72.482567 10.384101 37.247196 41.535740 -67.410889 -8.035042 12.344754 21.086435 17.390909 -0.079273 -0.383838 22.813433 -30.233654 19.043207 -9.568420 -0.351251 1.313209 11.315499 3.151252 0.734493 2.510394 3.397780 44.519577 
-3.215348 49.070972 -13.118265 43.984375 -12.890625 4.714618 10.370376 -8.712459 -6.345483 79.697266 -9.648438 6.787109 -11.532956 7.339045 0.524636 -4.824220 7.304687 4.355469 2.000000 -2.000000 0.000000 -66.318359 3.349610 -23.632240 -89.900238 -18.059265 57.036667 -15.979937 -36.111763 -44.169754 -2.000000 2.000000 0.000000 64.384766 9.062500 96.113281 28.992168 -77.932831 -7.911610 37.836887 39.051224 -68.375443 -31.369829 13.245570 18.448599 26.055426 1.687482 -0.559559 4.730338 -25.594624 11.464925 -29.951773 -1.562654 1.828444 18.863249 3.699809 1.501171 1.208452 1.635682 46.225121 
-4.180200 43.843266 -17.413065 46.093750 -13.300781 5.915722 10.370376 -8.712459 -6.345483 58.964844 -2.509766 11.181211 -3.533019 4.641741 0.324065 -10.537110 5.351562 2.109375 2.000000 -2.000000 0.000000 -59.707035 9.111328 -17.773438 -106.456932 -4.707305 63.158848 -23.932236 -26.258980 -42.583195 -2.000000 2.000000 0.000000 55.126953 5.332031 94.550781 61.974453 -88.066528 35.711769 32.531940 33.678383 -70.709526 -59.365738 11.934261 11.700076 45.523247 7.075190 -0.362615 0.757289 -25.110298 6.676556 -57.281712 -4.560267 2.426696 43.110382 6.730883 4.435772 0.616786 -5.934579 33.742374 
-4.232876 40.539268 -19.592916 41.738281 -9.248047 7.859759 10.370376 -8.712459 -6.345483 52.294922 -1.396484 11.991997 -0.299663 5.339500 0.365892 -12.187502 2.089844 -3.164063 2.000000 -2.000000 0.000000 -46.494141 0.361328 -7.831976 -101.100212 14.172894 57.731701 -37.386730 -17.535383 -41.136826 -2.000000 2.000000 0.000000 37.617184 6.660156 82.880859 90.243492 -89.031479 71.365173 23.000957 22.012197 -75.086746 -69.908554 7.841038 7.597377 62.052097 8.207362 -0.859706 0.508942 -28.284988 -8.823833 -70.316734 -9.179190 1.814213 64.930077 5.606317 6.252693 4.348726 -1.520908 40.171455 
-4.530356 39.033310 -20.702208 39.736324 -10.322265 5.410157 10.370376 -8.712459 -6.345483 46.386719 -1.250000 12.373047 1.683674 5.960005 0.419279 -13.369143 1.992187 -1.708984 2.000000 -2.000000 0.000000 -30.332033 -9.355469 -2.792969 -84.416847 29.338917 62.927948 -28.541391 -10.290322 -49.696320 -2.000000 2.000000 0.000000 24.970703 24.863281 75.834183 -13.112865 -73.361023 -30.621988 37.278667 9.858162 -77.543396 -76.635887 10.458092 6.353938 72.201820 10.002439 -0.725362 -5.877267 -23.514566 2.588449 -75.960579 -6.591647 2.946426 73.216011 6.523653 7.245557 3.402542 -5.045883 32.976894 
-4.652438 38.838688 -21.702360 40.078125 -10.517579 3.738452 10.370376 -8.712459 -6.345483 41.279301 -0.566406 12.714747 1.132466 6.829155 0.483202 -10.410158 2.011719 -0.986328 2.000000 -2.000000 0.000000 -20.390627 -22.880859 -2.880859 -60.140934 33.232334 59.168446 -23.074919 -3.831151 -53.875153 -2.000000 2.000000 0.000000 20.566406 38.701172 70.777588 -8.754769 -52.004478 -26.192438 36.504551 -3.833787 -79.352074 -77.998711 11.765256 6.318034 73.152611 10.608187 -0.633557 -7.074301 -26.098490 -5.200194 -77.673843 -4.208687 3.752584 72.498856 5.752405 7.034677 1.987101 -7.079595 29.213272 
-4.486512 39.814240 -22.500891 39.433594 -9.785156 3.181934 10.370376 -8.712459 -6.345483 40.253906 0.117188 12.890640 -2.865856 6.500338 0.464925 -10.146486 2.197265 -1.259766 2.000000 -2.000000 0.000000 -14.726563 -32.578125 -3.315804 -41.520039 27.721264 45.410759 -18.750917 1.895342 -56.793114 -2.000000 2.000000 0.000000 11.816405 46.445309 64.541016 -5.510580 -40.503479 -15.681315 33.355465 -1.418143 -78.622169 -73.654312 11.638295 7.618894 67.464996 10.422550 -0.537375 -6.299215 -22.158857 -2.796615 -75.251923 -2.656175 4.087550 67.076538 3.711626 6.042729 7.430400 -6.817043 34.657848 
-4.420783 41.150723 -23.408798 40.585938 -9.990233 2.998047 10.370376 -8.712459 -6.345483 37.802738 1.953125 13.369473 -5.948543 6.301406 0.455502 -11.123048 2.246094 -2.128906 2.000000 -2.000000 0.000000 -10.234375 -39.736328 -3.593750 -35.232269 21.121748 38.213058 -18.379622 1.966125 -56.901665 -2.000000 2.000000 0.000000 2.666016 48.681641 59.597179 -1.521037 -40.534401 -1.240432 34.132973 8.258496 -77.221954 -72.029335 11.337267 7.971441 61.387676 9.905385 -0.419223 -2.137186 -21.787981 -1.432282 -74.188896 -2.089801 4.187598 60.562256 3.165228 5.320756 14.350335 -7.681136 38.881058 
-4.404857 42.262802 -24.130713 39.472656 -9.687500 3.347967 10.370376 -8.712459 -6.345483 36.220703 3.105469 13.652872 -5.292964 6.809847 0.487281 -9.833984 1.669922 -2.978231 2.000000 -2.000000 0.000000 -8.740233 -46.787109 -3.503211 -35.729198 18.993162 50.336033 -21.778954 -9.624722 -51.280659 -2.000000 2.000000 0.000000 -2.949219 50.332031 56.542973 2.737310 -41.727936 11.794864 32.643616 11.336897 -76.287277 -68.400650 10.563858 8.803603 56.450104 9.818871 -0.255330 2.246041 -23.847727 -4.686719 -70.110474 -2.148885 3.923744 55.012707 2.683054 4.685321 12.553390 -8.252429 35.714710 
